<?xml version="1.0" standalone="no"?><svg xmlns="http://www.w3.org/2000/svg" viewBox="0 0 1440 320"><path fill="rgb(250, 245, 255)" fill-opacity="1" d="M0,128L17.1,138.7C34.3,149,69,171,103,165.3C137.1,160,171,128,206,138.7C240,149,274,203,309,202.7C342.9,203,377,149,411,138.7C445.7,128,480,160,514,192C548.6,224,583,256,617,256C651.4,256,686,224,720,181.3C754.3,139,789,85,823,85.3C857.1,85,891,139,926,144C960,149,994,107,1029,112C1062.9,117,1097,171,1131,181.3C1165.7,192,1200,160,1234,133.3C1268.6,107,1303,85,1337,117.3C1371.4,149,1406,235,1423,277.3L1440,320L1440,320L1422.9,320C1405.7,320,1371,320,1337,320C1302.9,320,1269,320,1234,320C1200,320,1166,320,1131,320C1097.1,320,1063,320,1029,320C994.3,320,960,320,926,320C891.4,320,857,320,823,320C788.6,320,754,320,720,320C685.7,320,651,320,617,320C582.9,320,549,320,514,320C480,320,446,320,411,320C377.1,320,343,320,309,320C274.3,320,240,320,206,320C171.4,320,137,320,103,320C68.6,320,34,320,17,320L0,320Z"></path></svg>