<?xml version="1.0" standalone="no"?><svg xmlns="http://www.w3.org/2000/svg" viewBox="0 0 1440 320"><path fill="rgb(250, 245, 255)" fill-opacity="1" d="M0,192L20,186.7C40,181,80,171,120,144C160,117,200,75,240,58.7C280,43,320,53,360,90.7C400,128,440,192,480,186.7C520,181,560,107,600,117.3C640,128,680,224,720,245.3C760,267,800,213,840,197.3C880,181,920,203,960,181.3C1000,160,1040,96,1080,58.7C1120,21,1160,11,1200,48C1240,85,1280,171,1320,186.7C1360,203,1400,149,1420,122.7L1440,96L1440,0L1420,0C1400,0,1360,0,1320,0C1280,0,1240,0,1200,0C1160,0,1120,0,1080,0C1040,0,1000,0,960,0C920,0,880,0,840,0C800,0,760,0,720,0C680,0,640,0,600,0C560,0,520,0,480,0C440,0,400,0,360,0C320,0,280,0,240,0C200,0,160,0,120,0C80,0,40,0,20,0L0,0Z"></path></svg>